PathFileType	4	(X/Y/Z)	c:\Git\powerlifing_model_clean\simulations\HC835B\Session1\HC835B_OGW_0005\marker_experimental.trc
DataRate	CameraRate	NumFrames	NumMarkers	Units	OrigDataRate	OrigDataStartFrame	OrigNumFrames
240.000000	240.000000	4	38	mm	240.000000	104	418
Frame#	Time	RPSI			LPSI			RASI			LASI			RTH1			RTH2			RTH3			RTH4			RSK1			RSK2			RSK3			RSK4			RCAL1			RCAL2			RCAL3			RST			RPT			RTN			RFMB			RSMB			RVMB			RFMH			RSMH			RVMH			RPM			LTH1			LTH2			LTH3			LTH4			LSK1			LSK2			LSK3			LSK4			LCAL1			LCAL2			LCAL3			LFMH			LVMH			
		X1	Y1	Z1	X2	Y2	Z2	X3	Y3	Z3	X4	Y4	Z4	X5	Y5	Z5	X6	Y6	Z6	X7	Y7	Z7	X8	Y8	Z8	X9	Y9	Z9	X10	Y10	Z10	X11	Y11	Z11	X12	Y12	Z12	X13	Y13	Z13	X14	Y14	Z14	X15	Y15	Z15	X16	Y16	Z16	X17	Y17	Z17	X18	Y18	Z18	X19	Y19	Z19	X20	Y20	Z20	X21	Y21	Z21	X22	Y22	Z22	X23	Y23	Z23	X24	Y24	Z24	X25	Y25	Z25	X26	Y26	Z26	X27	Y27	Z27	X28	Y28	Z28	X29	Y29	Z29	X30	Y30	Z30	X31	Y31	Z31	X32	Y32	Z32	X33	Y33	Z33	X34	Y34	Z34	X35	Y35	Z35	X36	Y36	Z36	X37	Y37	Z37	X38	Y38	Z38	

105	0.4333333333333333	452.6570739746095	1140.411865234375	-1833.22607421875	562.2377319335939	1132.684448242188	-1835.152465820313	391.782928466797	1093.139282226563	-1627.811401367188	627.1190185546876	1095.6640625	-1626.993408203125	333.3441772460938	817.1416015625002	-1732.739501953125	348.1117858886719	798.4004516601565	-1676.774536132813	349.4592895507813	734.9981079101564	-1722.007568359375	376.3589477539063	717.8244628906251	-1672.881958007813	414.1754760742189	294.0941467285157	-1877.52783203125	412.432830810547	271.4898071289063	-1819.735961914063	421.9782104492189	236.3057250976563	-1868.968872070313	431.9246520996095	216.4883575439454	-1812.916137695313	493.3163146972657	90.58904266357423	-1942.99462890625	523.7267456054689	52.04285430908205	-1933.13427734375	460.5114135742189	53.57618331909181	-1942.962158203125	531.4340209960939	64.83444213867189	-1863.688354492188	431.9063720703126	63.93169403076173	-1885.368530273438	512.8392333984376	83.30718231201173	-1809.144653320313	505.3358459472657	67.42734527587892	-1776.77685546875	456.9585266113282	91.34934997558595	-1772.296508789063	416.2412109375001	38.7634620666504	-1844.039306640625	500.8194885253907	41.59168243408204	-1723.045043945313	446.4633789062501	54.83318328857423	-1714.46630859375	391.0249633789064	31.82976150512696	-1767.354858398438	452.2095642089845	41.05368423461915	-1655.466918945313	717.2611083984376	827.1820068359377	-1607.976440429688	716.1403198242189	843.7156982421877	-1549.301513671875	718.2266845703126	762.5204467773439	-1551.807006835938	700.8945312500001	778.5814208984377	-1494.464721679688	669.0831298828126	332.1536254882813	-1576.558959960938	683.0740356445314	310.5964660644532	-1529.68994140625	668.8513793945314	276.9270935058594	-1563.735473632813	668.2829589843751	257.9564819335938	-1510.052124023438	597.7389526367189	139.9850463867188	-1617.010864257813	622.9755249023439	99.47160339355472	-1625.30078125	566.2794799804689	104.4921875	-1610.313110351563	605.1119995117189	85.6644744873047	-1394.134765625	694.6516723632814	51.10283660888673	-1451.11572265625	
106	0.4375	453.2423095703126	1139.374267578125	-1826.734375	563.6923828125001	1130.54638671875	-1826.496215820313	391.4970703125001	1092.067626953125	-1621.429931640625	627.0606079101564	1093.93408203125	-1619.960205078125	333.2473754882813	816.6804199218752	-1727.569458007813	348.0434875488282	797.4616699218752	-1671.849243164063	349.4633483886719	734.4328002929689	-1717.36865234375	376.3962097167969	716.7720336914064	-1668.475708007813	414.4207153320314	294.3337707519532	-1876.068481445313	412.6160278320314	271.3375244140626	-1818.328979492188	422.2145385742189	236.5347900390626	-1867.7822265625	432.1111450195314	216.3650054931641	-1811.819946289063	493.4349060058595	91.04819488525392	-1942.55810546875	524.0003662109376	52.39301681518556	-1932.871826171875	460.8284301757814	54.07901763916017	-1942.70751953125	531.6222534179689	64.8686981201172	-1863.35595703125	432.124237060547	64.20967864990236	-1885.12890625	512.9898071289064	83.21840667724611	-1808.762939453125	505.4003295898439	67.30050659179689	-1776.457763671875	457.0006713867189	91.28273010253908	-1771.998291015625	416.397186279297	38.8353500366211	-1843.91455078125	500.7097167968751	41.44542694091798	-1722.81640625	446.4896545410157	54.63585662841798	-1714.442626953125	391.0121154785157	31.82942199707032	-1767.343872070313	452.082000732422	40.60876083374024	-1655.197143554688	716.2637939453126	826.0712890625002	-1600.792236328125	714.9407348632814	842.466735839844	-1542.094604492188	716.8878784179689	761.2973632812501	-1544.639404296875	699.5037231445314	777.3341064453127	-1487.343017578125	669.2678833007814	328.5673217773438	-1561.7724609375	683.0885009765626	308.4971618652344	-1514.243896484375	668.9921875000001	273.6032714843751	-1547.157592773438	668.4459228515626	256.4040527343751	-1493.126342773438	598.3557739257814	134.8242340087891	-1596.76123046875	623.8250732421876	94.16319274902345	-1603.716674804688	567.1210327148439	99.44434356689456	-1588.923095703125	606.1045532226564	87.32284545898439	-1372.146850585938	695.7590332031251	51.33647537231447	-1428.2353515625	
107	0.4416666666666667	453.8073120117189	1138.303833007813	-1820.206909179688	564.2327270507814	1129.28759765625	-1819.658081054688	391.2443237304689	1090.816650390625	-1615.065307617188	627.0208129882814	1092.087524414063	-1612.930053710938	333.1166381835938	815.8298339843752	-1722.62890625	347.9282836914063	796.5069580078127	-1666.87109375	349.4604187011719	733.7155151367189	-1712.711303710938	376.4338989257813	715.9614868164064	-1663.869140625	414.7383422851564	294.5841979980469	-1874.362548828125	412.8707275390626	271.4491577148438	-1816.8359375	422.4816284179689	236.7860260009766	-1866.492797851563	432.3006591796876	216.1967926025391	-1810.736083984375	493.8059082031251	91.44242095947267	-1942.152954101563	524.3060913085939	52.66473388671876	-1932.537963867188	461.1534118652345	54.4761428833008	-1942.441772460938	531.8742065429689	65.00228118896486	-1863.015014648438	432.3681640625001	64.45733642578126	-1884.910034179688	513.1530151367189	83.11940002441408	-1808.328857421875	505.4673156738282	67.16969299316408	-1776.107543945313	457.0988769531251	91.18431091308595	-1771.689575195313	416.6128234863282	39.07231521606446	-1843.780517578125	500.6411743164064	41.28793334960938	-1722.5859375	446.4303588867189	54.47314071655275	-1714.24755859375	391.0047302246095	31.81556129455567	-1767.333129882813	451.947235107422	40.06748962402344	-1654.943237304688	715.1592407226564	824.7061157226565	-1593.7158203125	713.6857299804689	841.0015258789065	-1535.008056640625	715.4744873046876	759.8483886718751	-1537.63720703125	698.0384521484376	775.878356933594	-1480.372314453125	669.4990234375001	325.1572265625001	-1547.001708984375	683.4085693359376	306.5233764648438	-1498.829467773438	669.9116210937501	270.8630065917969	-1531.063232421875	668.6869506835939	254.9762573242188	-1476.26025390625	598.9290771484376	129.8186340332032	-1576.43505859375	624.7355346679689	89.12170410156251	-1582.056274414063	568.0208129882814	94.59361267089845	-1567.450805664063	607.1313476562501	89.24356079101564	-1350.385620117188	696.9027709960939	51.96313858032228	-1405.399536132813	
108	0.4458333333333333	454.4397277832032	1137.170776367188	-1813.597534179688	564.7963867187501	1127.920043945313	-1812.757690429688	390.9064331054689	1089.611450195313	-1608.537353515625	627.0338134765626	1090.16064453125	-1605.8193359375	333.0064086914063	815.021179199219	-1717.639526367188	347.7640991210938	795.5696411132815	-1661.86376953125	349.4760437011719	732.9206542968751	-1708.121459960938	376.4136352539063	715.0604858398439	-1659.233520507813	414.9751281738282	294.7448120117188	-1872.796752929688	413.0617980957032	271.1647338867188	-1815.391723632813	422.7867736816407	236.8899688720704	-1865.283569335938	432.5281372070314	216.0099487304688	-1809.567993164063	494.1878662109376	91.84677124023439	-1941.736694335938	524.6124877929689	53.00224685668947	-1932.178955078125	461.5021057128907	54.92476272583009	-1942.171264648438	532.1196289062501	65.04833984375001	-1862.618896484375	432.6670532226564	64.87193298339845	-1884.611328125	513.5095825195314	83.07917785644533	-1808.023193359375	505.5577392578126	67.00791931152345	-1775.748291015625	457.1689453125001	91.08707427978517	-1771.357543945313	416.8057861328126	39.20697021484376	-1843.650390625	500.556854248047	41.11172103881837	-1722.342529296875	446.3663330078126	54.24337387084962	-1714.025390625	391.0193481445314	31.77956199645997	-1767.335083007813	451.7087707519532	39.51136779785157	-1654.674926757813	714.0588378906251	823.2232055664065	-1586.800537109375	712.4806518554689	839.489929199219	-1528.125854492188	714.0808715820314	758.2475585937501	-1530.8564453125	696.6342163085939	774.244323730469	-1473.55712890625	669.7526245117189	321.7724914550782	-1532.268920898438	683.3281250000001	304.6684570312501	-1483.485595703125	670.0972290039064	267.8169860839844	-1514.53759765625	668.8827514648439	253.6999206542969	-1459.533569335938	599.9220581054689	125.0343170166016	-1556.204345703125	625.6750488281251	84.34461212158205	-1560.373657226563	568.9174194335939	89.97386169433595	-1545.911010742188	608.0960693359376	91.87924194335939	-1328.399047851563	698.0106201171876	52.99362945556642	-1382.789672851563	
